<svg width="41" height="31" viewBox="0 0 41 31" fill="none" xmlns="http://www.w3.org/2000/svg">
<g id="Rock">
<path id="Ellipse 1" d="M21.8222 31C32.3788 28.1965 41 24.8841 41 16.3225C40.2962 11.7049 29.4215 0.655618 20.0965 0.985435C4.40382 3.29423 -0.532754 6.57854 0.742791 16.3225C2.46844 24.8982 11.6193 31 21.8222 31Z" fill="#363636"/>
<path id="Vector 2" d="M25.1527 4.83545C25.1527 5.55152 25.1015 5.96263 25.5309 6.58183C26.5402 8.03732 27.9709 9.2398 28.8653 10.7641C30.1554 12.9628 30.8246 15.3134 31.4641 17.711" stroke="black" stroke-linecap="round"/>
<g id="Vector 3" filter="url(#filter0_d_5_13)">
<path d="M18.8414 15.5071C20.0509 15.5071 20.8017 15.9767 21.7839 16.6928C22.8013 17.4345 23.5129 18.9433 24.7815 19.3092C25.0728 19.3932 25.3629 19.4779 25.6477 19.5669" stroke="#151515" stroke-linecap="round"/>
</g>
<path id="Vector 4" d="M19.5839 23.7428C22.4295 23.7428 25.2776 23.7793 28.1228 23.7428C29.4425 23.7258 30.756 23.5281 32.0829 23.5108C32.3731 23.507 32.9474 23.5261 33.1897 23.3368C33.564 23.0445 34.3923 23.7062 34.6816 23.8588" stroke="black" stroke-linecap="round"/>
<g id="Vector 5" filter="url(#filter1_d_5_13)">
<path d="M13.3769 8.57156C14.0264 8.57156 14.6758 8.57156 15.3252 8.57156C16.1643 8.57156 16.2319 8.56057 16.5306 7.80195C16.9372 6.76933 17.3063 5.90385 18.0935 5.05946C18.7387 4.36734 19.4279 3.6837 20.0628 2.96442" stroke="black" stroke-linecap="round"/>
</g>
<path id="Vector 6" d="M4.36238 16.4351C5.33691 16.4351 6.22569 16.2031 7.20868 16.2031C8.49751 16.2031 9.29704 17.4845 10.0619 18.291C10.7855 19.0541 11.239 20.1627 11.7256 21.0749C12.3191 22.1875 12.6538 23.5432 12.6538 24.7868" stroke="black" stroke-linecap="round"/>
</g>
<defs>
<filter id="filter0_d_5_13" x="18.3414" y="15.0071" width="7.8065" height="6.06" filterUnits="userSpaceOnUse" color-interpolation-filters="sRGB">
<feFlood flood-opacity="0" result="BackgroundImageFix"/>
<feColorMatrix in="SourceAlpha" type="matrix" values="0 0 0 0 0 0 0 0 0 0 0 0 0 0 0 0 0 0 127 0" result="hardAlpha"/>
<feOffset dy="1"/>
<feComposite in2="hardAlpha" operator="out"/>
<feColorMatrix type="matrix" values="0 0 0 0 0 0 0 0 0 0 0 0 0 0 0 0 0 0 1 0"/>
<feBlend mode="normal" in2="BackgroundImageFix" result="effect1_dropShadow_5_13"/>
<feBlend mode="normal" in="SourceGraphic" in2="effect1_dropShadow_5_13" result="shape"/>
</filter>
<filter id="filter1_d_5_13" x="12.8769" y="2.46442" width="7.68584" height="7.60712" filterUnits="userSpaceOnUse" color-interpolation-filters="sRGB">
<feFlood flood-opacity="0" result="BackgroundImageFix"/>
<feColorMatrix in="SourceAlpha" type="matrix" values="0 0 0 0 0 0 0 0 0 0 0 0 0 0 0 0 0 0 127 0" result="hardAlpha"/>
<feOffset dy="1"/>
<feComposite in2="hardAlpha" operator="out"/>
<feColorMatrix type="matrix" values="0 0 0 0 0 0 0 0 0 0 0 0 0 0 0 0 0 0 1 0"/>
<feBlend mode="normal" in2="BackgroundImageFix" result="effect1_dropShadow_5_13"/>
<feBlend mode="normal" in="SourceGraphic" in2="effect1_dropShadow_5_13" result="shape"/>
</filter>
</defs>
</svg>
