<svg width="35" height="35" viewBox="0 0 35 35" fill="none" xmlns="http://www.w3.org/2000/svg">
<g id="Scissors">
<g id="Group 1">
<g id="Ellipse 4">
<mask id="path-1-outside-1_5_48" maskUnits="userSpaceOnUse" x="-1.63063" y="13.5685" width="18.0077" height="18.7157" fill="black">
<rect fill="white" x="-1.63063" y="13.5685" width="18.0077" height="18.7157"/>
<path d="M12.0483 22.7578C10.2926 24.6988 4.90502 29.0763 2.15978 28.5593C1.18384 27.6765 1.42325 25.0322 3.17892 23.0912C4.9346 21.1503 12.0915 16.407 13.0674 17.2897C14.0433 18.1725 13.8039 20.8168 12.0483 22.7578Z"/>
</mask>
<path d="M12.0483 22.7578C10.2926 24.6988 4.90502 29.0763 2.15978 28.5593C1.18384 27.6765 1.42325 25.0322 3.17892 23.0912C4.9346 21.1503 12.0915 16.407 13.0674 17.2897C14.0433 18.1725 13.8039 20.8168 12.0483 22.7578Z" fill="#800000"/>
<path d="M12.0483 22.7578C10.2926 24.6988 4.90502 29.0763 2.15978 28.5593C1.18384 27.6765 1.42325 25.0322 3.17892 23.0912C4.9346 21.1503 12.0915 16.407 13.0674 17.2897C14.0433 18.1725 13.8039 20.8168 12.0483 22.7578Z" stroke="black" mask="url(#path-1-outside-1_5_48)"/>
</g>
<path id="Ellipse 2" d="M9.55116 23.9398C8.06559 25.5821 3.01525 28.35 2.25619 27.6634C1.49712 26.9768 2.08607 25.0888 3.57164 23.4464C5.05721 21.804 10.1076 19.0362 10.8666 19.7228C11.6257 20.4094 11.0367 22.2974 9.55116 23.9398Z" fill="black"/>
</g>
<g id="Group 2">
<g id="Ellipse 3">
<mask id="path-3-outside-2_5_48" maskUnits="userSpaceOnUse" x="6.74731" y="19.7493" width="14.4126" height="15.9947" fill="black">
<rect fill="white" x="6.74731" y="19.7493" width="14.4126" height="15.9947"/>
<path d="M13.2951 32.1606C12.2676 33.6372 11.848 34.2401 9.78382 33.9385C6.71811 32.2751 13.7498 25.4381 14.7773 23.9615C15.8048 22.4849 17.3769 21.6888 18.2886 22.1835C19.2003 22.6782 14.3226 30.6839 13.2951 32.1606Z"/>
</mask>
<path d="M13.2951 32.1606C12.2676 33.6372 11.848 34.2401 9.78382 33.9385C6.71811 32.2751 13.7498 25.4381 14.7773 23.9615C15.8048 22.4849 17.3769 21.6888 18.2886 22.1835C19.2003 22.6782 14.3226 30.6839 13.2951 32.1606Z" fill="#800000"/>
<path d="M13.2951 32.1606C12.2676 33.6372 11.848 34.2401 9.78382 33.9385C6.71811 32.2751 13.7498 25.4381 14.7773 23.9615C15.8048 22.4849 17.3769 21.6888 18.2886 22.1835C19.2003 22.6782 14.3226 30.6839 13.2951 32.1606Z" stroke="black" mask="url(#path-3-outside-2_5_48)"/>
</g>
<path id="Ellipse 5" d="M12.8234 31.9047C12.0242 33.0532 10.8484 33.6978 10.1972 33.3444C9.54602 32.9911 11.969 28.9308 12.7682 27.7823C13.5674 26.6339 14.7432 25.9893 15.3944 26.3426C16.0456 26.6959 13.6226 30.7562 12.8234 31.9047Z" fill="black"/>
</g>
<g id="Rectangle 9">
<mask id="path-5-inside-3_5_48" fill="white">
<path d="M33.6163 7.17268L20.1732 17.3273L16.3231 19.2515L15.9572 16.4629L19.4324 14.1996L23.0558 12.5617L33.6163 7.17268Z"/>
</mask>
<path d="M33.6163 7.17268L20.1732 17.3273L16.3231 19.2515L15.9572 16.4629L19.4324 14.1996L23.0558 12.5617L33.6163 7.17268Z" fill="#D9D9D9" stroke="black" mask="url(#path-5-inside-3_5_48)"/>
</g>
<g id="Rectangle 10">
<mask id="path-6-inside-4_5_48" fill="white">
<path d="M27.2337 3.71146L29.5165 0.720275L19.6878 19.8373L17.5798 19.4051L19.6567 14.0614L27.2337 3.71146Z"/>
</mask>
<path d="M27.2337 3.71146L29.5165 0.720275L19.6878 19.8373L17.5798 19.4051L19.6567 14.0614L27.2337 3.71146Z" fill="#D9D9D9" stroke="black" mask="url(#path-6-inside-4_5_48)"/>
</g>
<rect id="Rectangle 11" x="-0.26713" y="-0.140521" width="3.92321" height="3.42899" transform="matrix(0.905417 -0.424523 0.163102 0.986609 13.1 17.5305)" fill="#800000" stroke="black" stroke-width="0.5"/>
<rect id="Rectangle 12" x="-0.147254" y="-0.270354" width="2.83432" height="3.98808" transform="matrix(0.986493 0.163806 -0.397478 0.917612 17.2676 19.6002)" fill="#800000" stroke="black" stroke-width="0.5"/>
<circle id="Ellipse 6" cx="20.6556" cy="14.9504" r="0.5" transform="rotate(42.1303 20.6556 14.9504)" fill="#800000"/>
</g>
</svg>
